<?xml version="1.0" encoding="utf-8"?>
<!-- Generator: Adobe Illustrator 21.1.0, SVG Export Plug-In . SVG Version: 6.00 Build 0)  -->
<svg version="1.1" xmlns="http://www.w3.org/2000/svg" xmlns:xlink="http://www.w3.org/1999/xlink" x="0px" y="0px"
	 viewBox="0 0 1920 720" style="enable-background:new 0 0 1920 720;" xml:space="preserve">
<style type="text/css">
	.st0{display:none;}
	.st1{display:inline;fill:#99999A;}
	.st2{fill:#001F5B;}
	.st3{fill:#C3002F;}
</style>
<g id="BORDER" class="st0">
	<path class="st1" d="M947.8,659.1h19.8 M953.4,644.1l10.5-28.8h-12.7l-10.6,28.8 M986.9,659.1h20.3l4.2-12.2h-20"/>
	<path class="st1" d="M933.1,662c-0.3,0.7-0.6,1.5-1,2.3c-3.8,8.9-12.3,10.8-20.9,10.8c-8.6,0-30.6-10.7-7-14.3
		c8.1-1.2,9.7-1.6,24.9-1.6c15.2,0,38.5-0.2,38.5-0.2L972,647l-32.6,0.1c0,0-28.9-1-43.3,6.3c-27.6,14,0.9,28.7,15.7,28.7
		c14.4,0,27.3-2.8,34.9-20.1"/>
	<polygon class="st1" points="975.4,682.3 962.3,682.3 986.5,615.4 999.6,615.4 	"/>
	<path class="st1" d="M857.8,524.7h19.8 M863.4,509.7L874,481h-12.7l-10.6,28.8 M896.9,524.8h20.3l4.2-12.2h-20"/>
	<path class="st1" d="M843.1,527.6c-0.3,0.7-0.6,1.5-1,2.3c-3.8,8.9-12.3,10.8-20.9,10.8c-8.6,0-30.6-10.7-7-14.3
		c8.1-1.2,9.7-1.6,24.9-1.6c15.2,0,38.5-0.2,38.5-0.2l4.5-12.1l-32.6,0.1c0,0-28.9-1-43.3,6.3c-27.6,14,0.9,28.7,15.7,28.7
		c14.4,0,27.3-2.8,34.9-20.1"/>
	<polygon class="st1" points="885.4,548 872.3,548 896.5,481.1 909.6,481.1 	"/>
	<path class="st1" d="M1212.5,574h19.8 M1218.1,559l10.5-28.8h-12.7l-10.6,28.8 M1251.6,574.1h20.3l4.2-12.2h-20"/>
	<path class="st1" d="M1197.8,576.9c-0.3,0.7-0.6,1.5-1,2.3c-3.8,8.9-12.3,10.8-20.9,10.8c-8.6,0-30.6-10.7-7-14.3
		c8.1-1.2,9.7-1.6,24.9-1.6c15.2,0,38.5-0.2,38.5-0.2l4.5-12.1l-32.6,0.1c0,0-28.9-1-43.3,6.3c-27.6,14,0.9,28.7,15.7,28.7
		c14.4,0,27.3-2.8,34.9-20.1"/>
	<polygon class="st1" points="1240.6,597 1227.5,597 1251.7,530.2 1264.8,530.2 	"/>
	<path class="st1" d="M707.1,605.4h19.8 M712.8,590.4l10.5-28.8h-12.7L700,590.4 M746.3,605.5h20.3l4.2-12.2h-20"/>
	<path class="st1" d="M692.4,608.3c-0.3,0.7-0.6,1.5-1,2.3c-3.8,8.9-12.3,10.8-20.9,10.8c-8.6,0-30.6-10.7-7-14.3
		c8.1-1.2,9.7-1.6,24.9-1.6c15.2,0,38.5-0.2,38.5-0.2l4.5-12.1l-32.6,0.1c0,0-28.9-1-43.3,6.3c-27.6,14,0.9,28.7,15.7,28.7
		c14.4,0,27.3-2.8,34.9-20.1"/>
	<polygon class="st1" points="734.7,628.6 721.6,628.6 745.9,561.7 759,561.7 	"/>
	<path class="st1" d="M947.8,918.3h19.8 M953.4,903.3l10.5-28.8h-12.7l-10.6,28.8 M986.9,918.4h20.3l4.2-12.2h-20"/>
	<path class="st1" d="M933.1,921.2c-0.3,0.7-0.6,1.5-1,2.3c-3.8,8.9-12.3,10.8-20.9,10.8c-8.6,0-30.6-10.7-7-14.3
		c8.1-1.2,9.7-1.6,24.9-1.6c15.2,0,38.5-0.2,38.5-0.2l4.5-12.1l-32.6,0.1c0,0-28.9-1-43.3,6.3c-27.6,14,0.9,28.7,15.7,28.7
		c14.4,0,27.3-2.8,34.9-20.1"/>
	<polygon class="st1" points="975.4,941.6 962.3,941.6 986.5,874.7 999.6,874.7 	"/>
	<path class="st1" d="M857.8,784h19.8 M863.4,769l10.5-28.8h-12.7L850.6,769 M896.9,784.1h20.3l4.2-12.2h-20"/>
	<path class="st1" d="M843.1,786.9c-0.3,0.7-0.6,1.5-1,2.3c-3.8,8.9-12.3,10.8-20.9,10.8c-8.6,0-30.6-10.7-7-14.3
		c8.1-1.2,9.7-1.6,24.9-1.6c15.2,0,38.5-0.2,38.5-0.2L882,772l-32.6,0.1c0,0-28.9-1-43.3,6.3c-27.6,14,0.9,28.7,15.7,28.7
		c14.4,0,27.3-2.8,34.9-20.1"/>
	<polygon class="st1" points="885.4,807.3 872.3,807.3 896.5,740.4 909.6,740.4 	"/>
	<path class="st1" d="M1212.5,833.3h19.8 M1218.1,818.3l10.5-28.8h-12.7l-10.6,28.8 M1251.6,833.4h20.3l4.2-12.2h-20"/>
	<path class="st1" d="M1197.8,836.2c-0.3,0.7-0.6,1.5-1,2.3c-3.8,8.9-12.3,10.8-20.9,10.8c-8.6,0-30.6-10.7-7-14.3
		c8.1-1.2,9.7-1.6,24.9-1.6c15.2,0,38.5-0.2,38.5-0.2l4.5-12.1l-32.6,0.1c0,0-28.9-1-43.3,6.3c-27.6,14,0.9,28.7,15.7,28.7
		c14.4,0,27.3-2.8,34.9-20.1"/>
	<polygon class="st1" points="1240.6,856.3 1227.5,856.3 1251.7,789.4 1264.8,789.4 	"/>
	<path class="st1" d="M707.1,864.7h19.8 M712.8,849.7l10.5-28.8h-12.7L700,849.7 M746.3,864.8h20.3l4.2-12.2h-20"/>
	<path class="st1" d="M692.4,867.6c-0.3,0.7-0.6,1.5-1,2.3c-3.8,8.9-12.3,10.8-20.9,10.8c-8.6,0-30.6-10.7-7-14.3
		c8.1-1.2,9.7-1.6,24.9-1.6c15.2,0,38.5-0.2,38.5-0.2l4.5-12.1l-32.6,0.1c0,0-28.9-1-43.3,6.3c-27.6,14,0.9,28.7,15.7,28.7
		c14.4,0,27.3-2.8,34.9-20.1"/>
	<polygon class="st1" points="734.7,887.9 721.6,887.9 745.9,821 759,821 	"/>
</g>
<g id="LOGO">
	<g>
		<g>
			<path class="st2" d="M775.3,444.6l26.8-73.7h-68.8l-26.8,73.7H664l64.2-176.4h42.6L746.5,335h68.8l24.3-66.8h42.6l-64.2,176.4
				H775.3z"/>
			<path class="st2" d="M878.9,444.6l64.2-176.4h118.6l-13.1,36.1h-77.5L959,337.5h73.2l-12.4,34.1h-73.2l-13.3,36.6h82l-13.2,36.4
				H878.9z"/>
			<path class="st2" d="M1120.6,444.6h-65.8l64.2-176.4h63.8c50.1,0,93.3,20.9,69,87.7C1229.2,418,1169.2,444.6,1120.6,444.6z
				 M1168.5,304.6h-21.2l-37.5,103.1h20.2c30.4,0,63.1-12.5,77.4-51.8C1221.8,316.3,1197.9,304.6,1168.5,304.6z"/>
			<path class="st2" d="M1413,314.1c-3.9-9.2-14.9-15.2-25.9-15.2c-11,0-26,3.7-31.1,17.7c-4.3,11.7,4.8,15.4,19.6,20.7
				c21.1,7.7,48.3,17.9,35.5,53.1c-14.8,40.6-54,58.8-88.9,58.8c-25.2,0-47.2-9.2-56.8-25.4l38.2-28.4c4.6,10.7,17.4,18.7,31.3,18.7
				c13,0,26.2-5,31.4-19.2c4.9-13.4-7-17.7-27.5-25.2c-19.8-7.2-38.3-18.7-26.7-50.6c14.2-39.1,55.5-55.3,88.4-55.3
				c19.9,0,39.6,7.5,49.9,21.7L1413,314.1z"/>
			<path class="st2" d="M1530.1,449.4c-55.1,0-82.1-37.9-61.8-93.7c20.6-56.5,74.4-92.2,129.5-92.2c55.3,0,83.2,35.6,62.6,92.2
				C1640.1,411.5,1585.5,449.4,1530.1,449.4z M1583.8,301.9c-29.9,0-58.7,22.9-69.9,53.8c-11.6,31.9,0.7,54.8,30.4,54.8
				s58.9-22.9,70.5-54.8C1626.1,324.8,1613.7,301.9,1583.8,301.9z"/>
			<path class="st2" d="M1792.9,444.6l-29-115.3h-0.7l-41,115.3h-41.4l64.2-176.4h48.6l28.9,115.1h0.7l40.9-115.1h41.4l-64.2,176.4
				H1792.9z"/>
		</g>
		<g id="BLUE">
			<polygon class="st2" points="406.4,108.4 342.7,108.4 289.7,252.4 353.7,252.4 			"/>
			<polygon class="st2" points="543.6,266.9 521.3,327.7 623,327.7 643.9,266.9 			"/>
			<path class="st2" d="M67.1,299.1c-137.9,70.1,4.7,143.5,78.5,143.5c71.9,0,136.7-14.1,174.5-100.7l-68,0c-1.6,3.7-3.2,7.6-5,11.7
				c-18.9,44.7-61.6,54.2-104.7,54.2c-43.1,0-153.2-53.6-35-71.7c40.6-6.2,48.6-7.9,124.7-7.9c76.1,0,192.4-0.9,192.4-0.9l22.3-60.4
				l-163.1,0.5C283.7,267.5,138.9,262.6,67.1,299.1z"/>
		</g>
		<polygon id="RED" class="st3" points="463.7,443.6 398.1,443.6 519.3,109 584.8,109 		"/>
	</g>
	<g>
		<g>
			<path class="st2" d="M472.9,582.3h17.4c3.2,0,5.8,0.4,7.8,1.3c2.1,0.9,3.7,2,4.9,3.3c1.2,1.3,2,2.8,2.5,4.5
				c0.5,1.7,0.7,3.3,0.7,4.8c0,1.5-0.2,3.1-0.7,4.8c-0.5,1.7-1.3,3.2-2.5,4.5c-1.2,1.3-2.8,2.4-4.9,3.3c-2.1,0.9-4.7,1.3-7.8,1.3
				h-10.7v21.8h-6.7V582.3z M479.6,604.2h8.8c1.3,0,2.6-0.1,3.9-0.3c1.3-0.2,2.4-0.6,3.4-1.2c1-0.6,1.8-1.4,2.4-2.4
				c0.6-1.1,0.9-2.4,0.9-4.1c0-1.7-0.3-3-0.9-4.1c-0.6-1.1-1.4-1.9-2.4-2.4c-1-0.6-2.1-0.9-3.4-1.2c-1.3-0.2-2.6-0.3-3.9-0.3h-8.8
				V604.2z"/>
			<path class="st2" d="M517.9,582.3h32v6.3h-25.3v14.8h23.5v6.3h-23.5v15.9h26.5v6.3h-33.3V582.3z"/>
			<path class="st2" d="M564.2,582.3h17.4c3.2,0,5.8,0.4,7.8,1.3c2.1,0.9,3.7,2,4.9,3.3c1.2,1.3,2,2.8,2.5,4.5
				c0.5,1.7,0.7,3.3,0.7,4.8c0,1.6-0.3,3.1-0.8,4.6c-0.6,1.5-1.4,2.8-2.4,4c-1.1,1.2-2.3,2.2-3.9,3c-1.5,0.8-3.2,1.3-5.1,1.5
				l14.1,22.6H591l-12.6-21.8h-7.5v21.8h-6.7V582.3z M570.9,604.2h8.8c1.3,0,2.6-0.1,3.9-0.3c1.3-0.2,2.4-0.6,3.4-1.2
				c1-0.6,1.8-1.4,2.4-2.4c0.6-1.1,0.9-2.4,0.9-4.1c0-1.7-0.3-3-0.9-4.1c-0.6-1.1-1.4-1.9-2.4-2.4c-1-0.6-2.1-0.9-3.4-1.2
				c-1.3-0.2-2.6-0.3-3.9-0.3h-8.8V604.2z"/>
			<path class="st2" d="M610.4,582.3h31.2v6.3h-24.4v15.5h22.8v6.3h-22.8v21.4h-6.7V582.3z"/>
			<path class="st2" d="M676.9,633.2c-3.8,0-7.3-0.7-10.4-2c-3.2-1.3-5.9-3.2-8.2-5.5c-2.3-2.3-4-5.1-5.3-8.3
				c-1.3-3.2-1.9-6.6-1.9-10.3c0-3.7,0.6-7.1,1.9-10.3c1.3-3.2,3.1-5.9,5.3-8.3c2.3-2.3,5-4.2,8.2-5.5c3.2-1.3,6.7-2,10.4-2
				s7.3,0.7,10.4,2c3.2,1.3,5.9,3.2,8.2,5.5c2.3,2.3,4,5.1,5.3,8.3c1.3,3.2,1.9,6.6,1.9,10.3c0,3.7-0.6,7.1-1.9,10.3
				c-1.3,3.2-3.1,5.9-5.3,8.3c-2.3,2.3-5,4.2-8.2,5.5C684.1,632.5,680.6,633.2,676.9,633.2z M676.9,626.9c2.8,0,5.4-0.5,7.7-1.6
				c2.3-1.1,4.2-2.5,5.9-4.2c1.6-1.8,2.9-3.9,3.8-6.3s1.3-5,1.3-7.7s-0.4-5.3-1.3-7.7c-0.9-2.4-2.1-4.5-3.8-6.3
				c-1.6-1.8-3.6-3.2-5.9-4.2c-2.3-1.1-4.9-1.6-7.7-1.6c-2.8,0-5.4,0.5-7.7,1.6c-2.3,1.1-4.2,2.5-5.9,4.2c-1.6,1.8-2.9,3.9-3.8,6.3
				c-0.9,2.4-1.3,5-1.3,7.7s0.4,5.3,1.3,7.7c0.9,2.4,2.1,4.5,3.8,6.3c1.6,1.8,3.6,3.2,5.9,4.2C671.4,626.4,674,626.9,676.9,626.9z"
				/>
			<path class="st2" d="M715.9,582.3h17.4c3.2,0,5.8,0.4,7.8,1.3c2.1,0.9,3.7,2,4.9,3.3c1.2,1.3,2,2.8,2.5,4.5
				c0.5,1.7,0.7,3.3,0.7,4.8c0,1.6-0.3,3.1-0.8,4.6c-0.6,1.5-1.4,2.8-2.4,4c-1.1,1.2-2.3,2.2-3.9,3c-1.5,0.8-3.2,1.3-5.1,1.5
				l14.1,22.6h-8.4l-12.6-21.8h-7.5v21.8h-6.7V582.3z M722.6,604.2h8.8c1.3,0,2.6-0.1,3.9-0.3c1.3-0.2,2.4-0.6,3.4-1.2
				c1-0.6,1.8-1.4,2.4-2.4c0.6-1.1,0.9-2.4,0.9-4.1c0-1.7-0.3-3-0.9-4.1c-0.6-1.1-1.4-1.9-2.4-2.4c-1-0.6-2.1-0.9-3.4-1.2
				c-1.3-0.2-2.6-0.3-3.9-0.3h-8.8V604.2z"/>
			<path class="st2" d="M761.6,582.3h10l15.8,37.5h0.3l15.6-37.5h10v49.6h-6.7v-40.8h-0.1l-16.7,40.8h-4.5l-16.7-40.8h-0.1v40.8
				h-6.7V582.3z"/>
			<path class="st2" d="M844.6,582.3h6.1l21.2,49.6H864l-5-12.3h-23.6l-4.9,12.3h-7.8L844.6,582.3z M856.6,613.8l-9.2-22.8h-0.1
				l-9.4,22.8H856.6z"/>
			<path class="st2" d="M881.8,582.3h8.8l27.3,40.8h0.1v-40.8h6.7v49.6h-8.5l-27.6-40.8h-0.1v40.8h-6.7V582.3z"/>
			<path class="st2" d="M975.6,593.1c-1.4-1.8-3.2-3.2-5.3-4.2c-2.1-1-4.4-1.5-6.7-1.5c-2.8,0-5.3,0.5-7.6,1.6
				c-2.3,1.1-4.2,2.5-5.8,4.3c-1.6,1.8-2.9,4-3.7,6.4c-0.9,2.5-1.3,5.1-1.3,7.9c0,2.6,0.4,5.1,1.3,7.4s2.1,4.4,3.6,6.2
				c1.6,1.8,3.5,3.2,5.8,4.2c2.3,1,4.9,1.5,7.8,1.5c2.8,0,5.3-0.6,7.5-1.8c2.1-1.2,4-2.8,5.5-4.9l5.7,4.3c-0.4,0.5-1,1.3-2,2.2
				c-0.9,1-2.2,1.9-3.7,2.9s-3.4,1.8-5.6,2.5c-2.2,0.7-4.7,1.1-7.5,1.1c-3.9,0-7.5-0.7-10.6-2.2c-3.2-1.5-5.8-3.5-8-5.9
				c-2.2-2.4-3.9-5.2-5.1-8.2c-1.2-3.1-1.7-6.2-1.7-9.3c0-3.8,0.6-7.4,1.9-10.6c1.3-3.2,3-6,5.3-8.4c2.3-2.4,5-4.2,8.2-5.5
				c3.2-1.3,6.7-2,10.5-2c3.3,0,6.5,0.6,9.6,1.9s5.7,3.2,7.7,5.8L975.6,593.1z"/>
			<path class="st2" d="M993.8,582.3h32v6.3h-25.3v14.8h23.5v6.3h-23.5v15.9h26.5v6.3h-33.3V582.3z"/>
			<path class="st2" d="M1078.5,582.3h6.1l21.2,49.6h-7.8l-5-12.3h-23.6l-4.9,12.3h-7.8L1078.5,582.3z M1090.6,613.8l-9.2-22.8h-0.1
				l-9.4,22.8H1090.6z"/>
			<path class="st2" d="M1115.7,582.3h17.2c2.1,0,4.1,0.3,6,0.8c1.8,0.5,3.4,1.3,4.8,2.3c1.3,1,2.4,2.3,3.2,3.8
				c0.8,1.6,1.2,3.4,1.2,5.5c0,2.8-0.8,5.2-2.4,7c-1.6,1.8-3.6,3.1-6.2,4v0.1c1.5,0.1,2.9,0.5,4.2,1.2c1.3,0.7,2.4,1.6,3.4,2.7
				c1,1.1,1.7,2.4,2.3,3.8c0.6,1.5,0.8,3,0.8,4.7c0,2.2-0.5,4.2-1.4,5.9c-0.9,1.7-2.2,3.1-3.7,4.3c-1.6,1.2-3.4,2.1-5.5,2.7
				s-4.4,0.9-6.8,0.9h-17V582.3z M1122.4,602.9h9.2c1.3,0,2.5-0.1,3.6-0.4c1.1-0.3,2.1-0.7,2.9-1.3c0.8-0.6,1.5-1.4,2-2.3
				c0.5-0.9,0.7-2.1,0.7-3.4c0-2-0.6-3.7-1.9-5.1c-1.3-1.4-3.2-2.2-5.9-2.2h-10.6V602.9z M1122.4,626h9.9c1,0,2.2-0.1,3.4-0.3
				c1.2-0.2,2.4-0.6,3.5-1.3s2-1.5,2.7-2.6c0.7-1.1,1.1-2.5,1.1-4.3c0-2.9-1-5.1-2.9-6.6c-1.9-1.5-4.5-2.2-7.8-2.2h-9.9V626z"/>
			<path class="st2" d="M1186.1,633.2c-3.8,0-7.3-0.7-10.4-2c-3.2-1.3-5.9-3.2-8.2-5.5c-2.3-2.3-4-5.1-5.3-8.3
				c-1.3-3.2-1.9-6.6-1.9-10.3c0-3.7,0.6-7.1,1.9-10.3c1.3-3.2,3.1-5.9,5.3-8.3c2.3-2.3,5-4.2,8.2-5.5c3.2-1.3,6.7-2,10.4-2
				s7.3,0.7,10.4,2c3.2,1.3,5.9,3.2,8.2,5.5c2.3,2.3,4,5.1,5.3,8.3c1.3,3.2,1.9,6.6,1.9,10.3c0,3.7-0.6,7.1-1.9,10.3
				c-1.3,3.2-3.1,5.9-5.3,8.3c-2.3,2.3-5,4.2-8.2,5.5C1193.3,632.5,1189.9,633.2,1186.1,633.2z M1186.1,626.9c2.8,0,5.4-0.5,7.7-1.6
				c2.3-1.1,4.2-2.5,5.9-4.2c1.6-1.8,2.9-3.9,3.8-6.3c0.9-2.4,1.3-5,1.3-7.7s-0.4-5.3-1.3-7.7c-0.9-2.4-2.1-4.5-3.8-6.3
				c-1.6-1.8-3.6-3.2-5.9-4.2c-2.3-1.1-4.9-1.6-7.7-1.6s-5.4,0.5-7.7,1.6c-2.3,1.1-4.2,2.5-5.9,4.2c-1.6,1.8-2.9,3.9-3.8,6.3
				c-0.9,2.4-1.3,5-1.3,7.7s0.4,5.3,1.3,7.7c0.9,2.4,2.1,4.5,3.8,6.3c1.6,1.8,3.6,3.2,5.9,4.2
				C1180.7,626.4,1183.2,626.9,1186.1,626.9z"/>
			<path class="st2" d="M1218.3,582.3h7.8l14.6,40.3h0.1l15.1-40.3h7.4l-19.5,49.6h-6.3L1218.3,582.3z"/>
			<path class="st2" d="M1272.7,582.3h32v6.3h-25.3v14.8h23.5v6.3h-23.5v15.9h26.5v6.3h-33.3V582.3z"/>
			<path class="st2" d="M1357.5,582.3h6.1l21.2,49.6h-7.8l-5-12.3h-23.6l-4.9,12.3h-7.8L1357.5,582.3z M1369.6,613.8l-9.2-22.8h-0.1
				l-9.4,22.8H1369.6z"/>
			<path class="st2" d="M1394.7,582.3h6.7v43.3h22.8v6.3h-29.5V582.3z"/>
			<path class="st2" d="M1434.5,582.3h6.7v43.3h22.8v6.3h-29.5V582.3z"/>
		</g>
		<rect x="1491.5" y="605.5" class="st2" width="181.5" height="7.5"/>
		<rect x="251" y="605.5" class="st2" width="181.5" height="7.5"/>
	</g>
</g>
</svg>
